<svg width="512" height="512" viewBox="0 0 100 100" fill="none" xmlns="http://www.w3.org/2000/svg">
  <defs>
    <linearGradient id="cf-bg" x1="0" y1="0" x2="100" y2="100" gradientUnits="userSpaceOnUse">
      <stop offset="0%" stop-color="#3b82f6"/>
      <stop offset="100%" stop-color="#0ea5e9"/>
    </linearGradient>
    <linearGradient id="cf-line" x1="0" y1="0" x2="100" y2="0" gradientUnits="userSpaceOnUse">
      <stop offset="0%" stop-color="#ffffff" stop-opacity="0.5"/>
      <stop offset="100%" stop-color="#ffffff" stop-opacity="1"/>
    </linearGradient>
    <clipPath id="cf-clip">
      <rect width="100" height="100" rx="20" ry="20"/>
    </clipPath>
  </defs>
  <rect width="100" height="100" rx="20" ry="20" fill="url(#cf-bg)"/>
  <circle cx="50" cy="22" r="9" fill="white" fill-opacity="0.95"/>
  <rect x="44" y="33" width="12" height="22" rx="4" fill="white" fill-opacity="0.95"/>
  <path d="M44 38 L28 22" stroke="white" stroke-width="7" stroke-linecap="round" stroke-opacity="0.95"/>
  <path d="M56 38 L72 22" stroke="white" stroke-width="7" stroke-linecap="round" stroke-opacity="0.95"/>
  <path d="M47 54 L40 75" stroke="white" stroke-width="7" stroke-linecap="round" stroke-opacity="0.95"/>
  <path d="M53 54 L60 75" stroke="white" stroke-width="7" stroke-linecap="round" stroke-opacity="0.95"/>
  <path d="M8 84 L22 84 L28 72 L34 94 L40 78 L46 84 L54 84 L60 76 L66 90 L72 84 L92 84"
    stroke="url(#cf-line)" stroke-width="3.5" stroke-linecap="round" stroke-linejoin="round"
    fill="none" clip-path="url(#cf-clip)"/>
</svg>
